<svg xmlns="http://www.w3.org/2000/svg" xmlns:xlink="http://www.w3.org/1999/xlink" version="1.1" id="Layer_1" x="0px" y="0px" viewBox="4.5 -9.0 90.0 121.5" enable-background="new 0 0 90 90" xml:space="preserve" height="100px" width="100px">
<path d="M89.604,47.06c-0.336,0.539-0.843,0.851-1.377,0.851H83.2v13.245c0,1.269-0.794,2.299-1.773,2.299H59.821  c0.57-1.151,0.796-2.504,0.583-3.82c-1.618-9.92-7.041-18.172-14.507-22.076c-0.075-0.039-0.156-0.056-0.233-0.088  c1.952-3.844,4.779-6.848,8.066-8.581c2.823,4.056,7.511,6.721,12.817,6.721c5.315,0,10.012-2.674,12.833-6.743  c5.265,2.753,9.358,8.761,10.582,16.268C90.072,45.815,89.941,46.522,89.604,47.06z M57.611,60.091  c-1.507-9.241-6.544-16.635-13.025-20.024c-3.472,5.008-9.254,8.3-15.796,8.3c-6.53,0-12.301-3.28-15.775-8.273  C6.561,43.496,1.549,50.876,0.047,60.092c-0.136,0.834,0.026,1.704,0.44,2.367c0.414,0.663,1.037,1.048,1.695,1.048h6.188v16.303  c0,1.563,0.977,2.83,2.181,2.83h36.556c1.205,0,2.182-1.267,2.182-2.83V63.507h6.188c0.658,0,1.281-0.385,1.695-1.048  C57.585,61.796,57.747,60.926,57.611,60.091z M48.801,20.978c-1.455,0.05-2.593,1.27-2.543,2.725s1.27,2.593,2.725,2.543  c1.455-0.05,2.593-1.27,2.543-2.725C51.475,22.067,50.255,20.928,48.801,20.978z M44.227,29.15c0,8.558-6.938,15.496-15.496,15.496  c-8.558,0-15.496-6.938-15.496-15.496c0-8.558,6.938-15.496,15.496-15.496C37.29,13.654,44.227,20.592,44.227,29.15z M31.866,28.745  c-0.05-1.455-1.27-2.593-2.725-2.543c-1.455,0.05-2.593,1.27-2.543,2.725c0.05,1.455,1.27,2.593,2.725,2.543  C30.777,31.419,31.916,30.2,31.866,28.745z M41.696,26.133c-0.05-1.455-1.27-2.593-2.725-2.543c-1.455,0.05-2.593,1.27-2.543,2.725  c0.05,1.455,1.27,2.593,2.725,2.543C40.607,28.808,41.746,27.588,41.696,26.133z M79.185,19.999c0,6.98-5.658,12.638-12.638,12.638  c-6.98,0-12.638-5.658-12.638-12.638S59.567,7.361,66.547,7.361C73.527,7.361,79.185,13.019,79.185,19.999z M61.355,20.909  c-0.05-1.455-1.27-2.593-2.725-2.543c-1.455,0.05-2.593,1.27-2.543,2.725c0.05,1.455,1.27,2.593,2.725,2.543  C60.267,23.584,61.405,22.364,61.355,20.909z M71.185,18.297c-0.05-1.455-1.27-2.593-2.725-2.543s-2.593,1.27-2.543,2.725  c0.05,1.455,1.27,2.593,2.725,2.543C70.096,20.972,71.235,19.752,71.185,18.297z"/>
<text x="0.0" y="105.75" font-size="4.5" font-weight="bold" font-family="Helvetica Neue, Helvetica, Arial-Unicode, Arial, Sans-serif" fill="#000000">Created by Patrick Morrison</text><text x="0.0" y="110.25" font-size="4.5" font-weight="bold" font-family="Helvetica Neue, Helvetica, Arial-Unicode, Arial, Sans-serif" fill="#000000">from the Noun Project</text></svg>